<?xml version="1.0" encoding="utf-8"?>
<!-- Generator: Adobe Illustrator 24.2.1, SVG Export Plug-In . SVG Version: 6.00 Build 0)  -->
<svg version="1.1" id="Capa_1" xmlns="http://www.w3.org/2000/svg" xmlns:xlink="http://www.w3.org/1999/xlink" x="0px" y="0px"
	 viewBox="0 0 123 126" style="enable-background:new 0 0 123 126;" xml:space="preserve">
<style type="text/css">
	.st0{fill:#F7F092;}
	.st1{fill:#F8D63B;}
	.st2{fill:#F18831;}
</style>
<polygon class="st0" points="12.58,79.35 37.21,71.58 9.93,44.3 46.31,70.45 28.12,80.68 "/>
<polygon class="st0" points="29.92,20.59 45.13,41.47 62.31,6.92 49.1,49.73 33.61,35.74 "/>
<polygon class="st0" points="94.62,23.27 78.29,43.28 116.07,51.13 71.31,49.22 80.91,30.69 "/>
<polygon class="st0" points="108.71,82.54 84.66,73.13 88.78,111.5 76.86,68.31 97.44,71.76 "/>
<polygon class="st0" points="57.04,116.08 60.58,90.49 24.23,103.44 63.46,81.79 64.9,102.61 "/>
<path class="st1" d="M37.03,68.74l-23.49-21.6l28.23,19.52l2.46,8.72c0,0-6.44,6.06-22.36,7.39H19.4l18.57-11.94L37.03,68.74z"/>
<path class="st1" d="M47.76,40.39l13-29.15l-9.52,32.97l-7.48,5.11c0,0-7.8-4.18-14.12-18.84l-0.78-2.34l17.22,13.81L47.76,40.39z"
	/>
<path class="st1" d="M80.01,45.55l31.49,5.17l-34.31-0.83l-6.84-5.94c0,0,2.06-8.6,14.64-18.44l2.06-1.35l-8.98,20.17L80.01,45.55z"
	/>
<path class="st1" d="M83.02,75.47l4.74,31.56l-9.73-32.91l3.55-8.33c0,0,8.82-0.68,22.04,8.28l1.92,1.55l-21.95-2.36L83.02,75.47z"
	/>
<path class="st1" d="M57.93,89.45l-29.59,11.96l29.74-17.14l8.93,1.51c0,0,2.72,8.42-2.91,23.37l-1.06,2.23l-2.82-21.89L57.93,89.45
	z"/>
<path class="st2" d="M17.89,44.87c0,0,23.49,26.72,23.49,26.72L29.64,81.81c0,0,13.07,0.99,19.33-4.9
	c4.95-4.67-2.47-9.84-5.63-12.72c-5.31-4.84-10.53-9.8-16.26-14.15c-1.65-1.26-3.35-2.48-5.16-3.51
	C21.05,46.05,18.45,45.5,17.89,44.87z"/>
<path class="st2" d="M64.3,14.65c0,0-17.85,30.77-17.85,30.77l-13.44-7.88c0,0,3.22,12.71,10.8,16.76c6,3.21,8.55-5.47,10.27-9.39
	c2.9-6.57,5.94-13.1,8.24-19.92c0.66-1.97,1.29-3.97,1.68-6.01C64.19,18.02,63.88,15.38,64.3,14.65z"/>
<path class="st2" d="M109.1,55.02c0,0-34.3-9.45-34.3-9.45l4.21-15c0,0-11.48,6.34-13.47,14.7c-1.58,6.62,7.46,6.88,11.69,7.55
	c7.09,1.13,14.18,2.42,21.36,2.91c2.07,0.14,4.17,0.24,6.24,0.1C105.81,55.76,108.29,54.79,109.1,55.02z"/>
<path class="st2" d="M82.94,106.06c0,0-1.53-35.54-1.53-35.54l15.57-0.59c0,0-9.55-8.98-18.12-8.31c-6.79,0.53-4.26,9.21-3.6,13.44
	c1.1,7.1,2.05,14.24,3.78,21.22c0.5,2.02,1.05,4.04,1.82,5.97C81.22,103.16,82.9,105.22,82.94,106.06z"/>
<path class="st2" d="M28.16,96.5c0,0,34.21-9.77,34.21-9.77l4.21,15c0,0,6.5-11.38,3.86-19.56c-2.1-6.48-9.95-1.99-13.91-0.37
	c-6.65,2.72-13.37,5.31-19.75,8.62c-1.84,0.96-3.68,1.96-5.38,3.16C30.58,94.15,28.97,96.27,28.16,96.5z"/>
</svg>
